<svg id="visual" viewBox="0 0 1920 1080" width="1920" height="1080" xmlns="http://www.w3.org/2000/svg" xmlns:xlink="http://www.w3.org/1999/xlink" version="1.1"><rect x="0" y="0" width="1920" height="1080" fill="#FFFFFF"></rect><path d="M0 126L45.7 126.5C91.3 127 182.7 128 274.2 131.8C365.7 135.7 457.3 142.3 548.8 144.7C640.3 147 731.7 145 823 142C914.3 139 1005.7 135 1097 134C1188.3 133 1279.7 135 1371.2 141.3C1462.7 147.7 1554.3 158.3 1645.8 157.8C1737.3 157.3 1828.7 145.7 1874.3 139.8L1920 134L1920 0L1874.3 0C1828.7 0 1737.3 0 1645.8 0C1554.3 0 1462.7 0 1371.2 0C1279.7 0 1188.3 0 1097 0C1005.7 0 914.3 0 823 0C731.7 0 640.3 0 548.8 0C457.3 0 365.7 0 274.2 0C182.7 0 91.3 0 45.7 0L0 0Z" fill="#ffffff"></path><path d="M0 133L45.7 129.2C91.3 125.3 182.7 117.7 274.2 113.2C365.7 108.7 457.3 107.3 548.8 111.3C640.3 115.3 731.7 124.7 823 125.8C914.3 127 1005.7 120 1097 121.5C1188.3 123 1279.7 133 1371.2 134C1462.7 135 1554.3 127 1645.8 121.3C1737.3 115.7 1828.7 112.3 1874.3 110.7L1920 109L1920 0L1874.3 0C1828.7 0 1737.3 0 1645.8 0C1554.3 0 1462.7 0 1371.2 0C1279.7 0 1188.3 0 1097 0C1005.7 0 914.3 0 823 0C731.7 0 640.3 0 548.8 0C457.3 0 365.7 0 274.2 0C182.7 0 91.3 0 45.7 0L0 0Z" fill="#fff6d6"></path><path d="M0 110L45.7 107.5C91.3 105 182.7 100 274.2 97.5C365.7 95 457.3 95 548.8 97.3C640.3 99.7 731.7 104.3 823 103.8C914.3 103.3 1005.7 97.7 1097 95C1188.3 92.3 1279.7 92.7 1371.2 97.5C1462.7 102.3 1554.3 111.7 1645.8 113C1737.3 114.3 1828.7 107.7 1874.3 104.3L1920 101L1920 0L1874.3 0C1828.7 0 1737.3 0 1645.8 0C1554.3 0 1462.7 0 1371.2 0C1279.7 0 1188.3 0 1097 0C1005.7 0 914.3 0 823 0C731.7 0 640.3 0 548.8 0C457.3 0 365.7 0 274.2 0C182.7 0 91.3 0 45.7 0L0 0Z" fill="#ffeead"></path><path d="M0 100L45.7 96.5C91.3 93 182.7 86 274.2 79C365.7 72 457.3 65 548.8 63.2C640.3 61.3 731.7 64.7 823 71.5C914.3 78.3 1005.7 88.7 1097 89.7C1188.3 90.7 1279.7 82.3 1371.2 78C1462.7 73.7 1554.3 73.3 1645.8 72C1737.3 70.7 1828.7 68.3 1874.3 67.2L1920 66L1920 0L1874.3 0C1828.7 0 1737.3 0 1645.8 0C1554.3 0 1462.7 0 1371.2 0C1279.7 0 1188.3 0 1097 0C1005.7 0 914.3 0 823 0C731.7 0 640.3 0 548.8 0C457.3 0 365.7 0 274.2 0C182.7 0 91.3 0 45.7 0L0 0Z" fill="#ffe683"></path><path d="M0 67L45.7 64C91.3 61 182.7 55 274.2 49.8C365.7 44.7 457.3 40.3 548.8 43.7C640.3 47 731.7 58 823 59.3C914.3 60.7 1005.7 52.3 1097 51.7C1188.3 51 1279.7 58 1371.2 60.5C1462.7 63 1554.3 61 1645.8 58.7C1737.3 56.3 1828.7 53.7 1874.3 52.3L1920 51L1920 0L1874.3 0C1828.7 0 1737.3 0 1645.8 0C1554.3 0 1462.7 0 1371.2 0C1279.7 0 1188.3 0 1097 0C1005.7 0 914.3 0 823 0C731.7 0 640.3 0 548.8 0C457.3 0 365.7 0 274.2 0C182.7 0 91.3 0 45.7 0L0 0Z" fill="#ffdf54"></path><path d="M0 40L45.7 36.5C91.3 33 182.7 26 274.2 26.7C365.7 27.3 457.3 35.7 548.8 38.2C640.3 40.7 731.7 37.3 823 34.8C914.3 32.3 1005.7 30.7 1097 29.3C1188.3 28 1279.7 27 1371.2 24.7C1462.7 22.3 1554.3 18.7 1645.8 18.3C1737.3 18 1828.7 21 1874.3 22.5L1920 24L1920 0L1874.3 0C1828.7 0 1737.3 0 1645.8 0C1554.3 0 1462.7 0 1371.2 0C1279.7 0 1188.3 0 1097 0C1005.7 0 914.3 0 823 0C731.7 0 640.3 0 548.8 0C457.3 0 365.7 0 274.2 0C182.7 0 91.3 0 45.7 0L0 0Z" fill="#ffd700"></path></svg>